<svg xmlns="http://www.w3.org/2000/svg" width="32" height="32"><!--!Font Awesome Free 6.7.2 by @fontawesome - https://fontawesome.com License - https://fontawesome.com/license/free Copyright 2025 Fonticons, Inc.--><path d="M8.46 8.627a10.64 10.64 0 0 0-2.52 3.986 2.13 2.13 0 0 1-2.72 1.3 2.135 2.135 0 0 1-1.3-2.72 14.85 14.85 0 0 1 3.52-5.586C11.253-.207 20.66-.227 26.493 5.54l2.774-2.773A1.602 1.602 0 0 1 32 3.9v8.533c0 .887-.713 1.6-1.6 1.6h-8.533a1.602 1.602 0 0 1-1.133-2.733l2.74-2.74C19.3 4.46 12.6 4.48 8.453 8.627ZM0 19.9c0-.887.713-1.6 1.6-1.6h8.533a1.602 1.602 0 0 1 1.133 2.733l-2.74 2.74c4.174 4.1 10.874 4.08 15.02-.066a10.64 10.64 0 0 0 2.52-3.987 2.13 2.13 0 0 1 2.72-1.3 2.135 2.135 0 0 1 1.3 2.72 14.9 14.9 0 0 1-3.526 5.587c-5.813 5.813-15.22 5.833-21.053.066l-2.774 2.774A1.602 1.602 0 0 1 0 28.433v-8.526z" style="fill:#fefefe;fill-opacity:1;stroke-width:1"/></svg>