<svg xmlns="http://www.w3.org/2000/svg" xml:space="preserve" width="176mm" height="176mm" viewBox="0 0 176 176"><g transform="translate(-18.155 -.53)"><path d="M121.076 16.658c-.845.042-1.581.561-2.391.794-2.031-.738-2.587.186-3.51.555-2.218-.555-2.955.552-4.066 1.666h-1.293a15.43 15.43 0 0 0-5.73 7.948 13.04 13.04 0 0 0-5.731-7.948h-1.297c-1.106-1.114-1.662-2.035-4.065-1.666-.92-.358-1.48-1.293-3.51-.555a13.5 13.5 0 0 0-2.59-.738 3.5 3.5 0 0 0-1.666.552 3.63 3.63 0 0 0-4.062.358c-1.851-.186-2.59.183-2.958.92-.359 0-3.141-.357-4.438 1.48-3.145-.358-4.065 1.848-2.958 3.883a2.82 2.82 0 0 0 .187 3.882c-.551 1.11-.187 2.221 1.107 3.514a3.11 3.11 0 0 0 1.479 3.327c-.183 2.031 1.852 3.141 2.404 3.51.186 1.11.742 2.218 3.145 2.773.358 1.662 1.847 2.034 3.14 2.403a14.685 14.685 0 0 0-8.502 14.42l-.742 1.107a14.205 14.205 0 0 0-2.583 21.444 44.6 44.6 0 0 0 2.031 6.469 16.27 16.27 0 0 0 9.982 12.568 38 38 0 0 0 9.428 5.372 15.93 15.93 0 0 0 11.644 5.176h.187a15.95 15.95 0 0 0 11.647-5.176 30.7 30.7 0 0 0 9.424-5.372 15.6 15.6 0 0 0 9.983-12.568 44.5 44.5 0 0 0 2.034-6.469 13.61 13.61 0 0 0-1.852-21.444l-.742-1.107a14.52 14.52 0 0 0-8.503-14.42c1.296-.358 2.776-.741 3.145-2.403a3.535 3.535 0 0 0 3.14-2.773c.555-.358 2.776-1.665 2.404-3.51a2.99 2.99 0 0 0 1.48-3.327c1.292-1.293 1.661-2.404 1.11-3.514a2.676 2.676 0 0 0 .182-3.882c1.11-2.031.187-4.252-2.959-3.883a4.91 4.91 0 0 0-4.433-1.48 2.99 2.99 0 0 0-2.96-.92 3.635 3.635 0 0 0-4.064-.358c-.625-.485-1.17-.632-1.678-.608m-33.05 2.073a10.4 10.4 0 0 1 3.511 2.217c.359-.358.742-.738.187-1.662a7.3 7.3 0 0 1 2.776 2.4c.737-.552.358-1.107.358-1.662a16 16 0 0 1 2.955 3.141 2.8 2.8 0 0 0 .56-1.293c2.954 2.959 7.206 10.169 1.107 12.937a58.9 58.9 0 0 0-18.486-9.792A62.3 62.3 0 0 1 98 36.29c-1.48 5.73-9.058 6.089-11.82 5.917a1.96 1.96 0 0 0 1.297-1.11 14.9 14.9 0 0 1-5.179-.738l-.013-.022c.742-.186.927-.186 1.297-.738a14.1 14.1 0 0 1-4.438-1.848 2.4 2.4 0 0 0 1.848-.358 20.2 20.2 0 0 1-4.251-2.59c.738 0 1.662 0 1.848-.358a12.1 12.1 0 0 1-3.328-2.776 2.5 2.5 0 0 0 1.849-.183 24 24 0 0 1-2.955-3.14 2.59 2.59 0 0 0 2.031 0c-.359-.738-1.845-1.297-2.586-2.959.741 0 1.662.183 1.848 0a11.1 11.1 0 0 0-1.666-3.327 19.3 19.3 0 0 0 4.256-.187l-1.115-1.11a8.3 8.3 0 0 1 4.807.559c.555-.359 0-.924-.738-1.666a26.6 26.6 0 0 1 4.07.924c.55-.555-.36-1.11-.928-1.662a10.4 10.4 0 0 1 4.252 1.662c.738-.738 0-1.297-.36-1.848m33.243.01c-.555.556-1.11 1.111-.359 1.853a12.3 12.3 0 0 1 4.255-1.666c-.555.555-1.665 1.107-.924 1.666a26 26 0 0 1 4.065-.929c-.737.556-1.293 1.11-.738 1.666a10.2 10.2 0 0 1 4.807-.555l-1.11 1.11a20.3 20.3 0 0 0 4.252.187 11 11 0 0 0-1.662 3.323c.183.187 1.106 0 1.844 0-.92 1.849-2.403 2.221-2.586 2.959a2 2 0 0 0 2.031 0c-.552 1.293-1.848 2.035-2.955 3.145.186.183.738.358 1.845.182a26 26 0 0 1-3.324 2.773 10 10 0 0 0 1.845.358 20 20 0 0 1-4.249 2.59 2.4 2.4 0 0 0 1.849.358 13.9 13.9 0 0 1-4.438 1.848c.359.555.555.555 1.297.738-1.666.928-4.255.555-4.993.927.187.552.555.738 1.292 1.111-2.772.183-10.347-.187-11.82-5.917A58.1 58.1 0 0 1 128.5 25.192a55.3 55.3 0 0 0-18.486 9.797c-6.468-2.959-2.22-10.17.925-13.124l-.015.022c.187.737.36 1.292.555 1.292a23.4 23.4 0 0 1 2.959-3.145c0 .56-.359 1.297.358 1.666a11.8 11.8 0 0 1 2.777-2.403c-.555.924-.188 1.297.182 1.666a10.4 10.4 0 0 1 3.514-2.222M104.653 42.74v.01c4.438 0 9.8 3.145 9.8 6.286 0 2.773-3.883 4.993-9.8 4.807-5.914 0-9.796-2.776-9.796-5.373 0-2.217 4.806-5.917 9.796-5.73m-14.487 1.853c.983-.025 1.999.04 3.039.202 3.144.555-14.603 15.713-14.969 12.382-.163-7.76 5.052-12.41 11.93-12.584m28.973.182c6.878.175 12.095 4.826 11.933 12.589-.183 3.327-17.93-11.82-14.972-12.386a17 17 0 0 1 3.039-.203m-3.144 9.444a10.48 10.48 0 0 1 8.977 5.373 10.3 10.3 0 0 1-1.845 14.606 10.495 10.495 0 0 1-14.237-4.069 10.344 10.344 0 0 1 1.851-14.6 10.5 10.5 0 0 1 5.254-1.31m-22.956.127a10.34 10.34 0 0 1 5.276 1.116 10.484 10.484 0 0 1 2.468 14.592 10.305 10.305 0 0 1-13.969 4.628h-.003a10.5 10.5 0 0 1-2.464-14.603 10.34 10.34 0 0 1 8.692-5.733m38.765 6.132q.202-.01.427.041a11.175 11.175 0 0 1 2.217 17.934c-3.761 1.61-6.826-17.769-2.644-17.975m-54.623.172c4.182.214 1.117 19.762-2.645 17.972a11.275 11.275 0 0 1 2.217-17.93q.225-.052.428-.042m27.496 13.365a10.48 10.48 0 0 1 10.722 9.969 10.326 10.326 0 0 1-10.722 9.781 10.21 10.21 0 0 1-10.72-9.796v-.158a10.33 10.33 0 0 1 10.72-9.796m23.766 3.839a3.48 3.48 0 0 1 2.299.782 12.02 12.02 0 0 1-.36 13.127h-.01c-4.623 6.282-10.72 6.465-13.127 4.807-2.403-2.224-.552-9.245 2.776-13.124 2.912-3.191 5.927-5.549 8.422-5.592zM80.35 79.47c2.712.087 5.974 2.201 8.618 5.25 3.14 3.51 4.62 9.982 2.03 11.82l-.01.014c-2.404 1.476-8.317.92-12.569-4.993-2.772-4.989-2.403-9.982-.555-11.461.74-.463 1.582-.659 2.486-.63m24.513 17.25c4.252-.18 10.166 1.296 10.166 3.513.186 2.034-5.173 6.472-10.352 6.472-5.372.183-10.538-4.251-10.538-5.917 0-2.217 6.473-4.069 10.724-4.069m-43.378 22.176q-1.342 0-2.32.562a3.93 3.93 0 0 0-1.514 1.497 4.07 4.07 0 0 0-.537 2.06h2.501q0-.623.208-1.116.216-.494.623-.77.416-.277.987-.277.537 0 .9.225.373.225.563.64.19.407.19.978 0 .381-.164.806a4.7 4.7 0 0 1-.51.943q-.355.519-.97 1.203l-4.077 4.371v1.662h8.621v-1.947h-5.401l2.19-2.459q.632-.641 1.151-1.237t.883-1.177q.372-.589.571-1.178.2-.597.2-1.22 0-1.109-.477-1.904-.467-.806-1.384-1.23-.91-.432-2.234-.432m10.033 0q-1.134 0-2.078.432a3.77 3.77 0 0 0-1.506 1.204q-.555.77-.554 1.808h2.501q0-.467.234-.796.234-.33.623-.51.39-.182.849-.182.58 0 .96.216.381.208.563.589.19.372.19.856 0 .537-.207.944a1.42 1.42 0 0 1-.615.623q-.416.217-1.056.217h-1.333v1.895h1.333q.64 0 1.108.2.467.198.719.623.25.415.25 1.107 0 .537-.233.944-.225.399-.658.623-.424.217-1.021.217a2.1 2.1 0 0 1-.961-.217 1.67 1.67 0 0 1-.667-.597 1.6 1.6 0 0 1-.242-.866h-2.502q0 .935.364 1.62.372.675.987 1.124.623.442 1.385.667a5.8 5.8 0 0 0 1.567.216q.96 0 1.774-.242a4.4 4.4 0 0 0 1.42-.727 3.3 3.3 0 0 0 .952-1.16q.337-.693.337-1.575 0-.72-.268-1.308a2.8 2.8 0 0 0-.797-1.03c-.308-.257-.691-.452-1.128-.603.342-.156.655-.334.912-.556q.52-.45.796-1.004.277-.563.277-1.16 0-1.177-.536-1.974-.537-.796-1.498-1.203-.96-.415-2.241-.415m64.641 0q-1.341 0-2.32.562a3.94 3.94 0 0 0-1.515 1.497 4.07 4.07 0 0 0-.536 2.06h2.501q0-.623.208-1.116.216-.494.623-.77.415-.277.987-.277.537 0 .9.225.372.225.563.64.19.407.19.978 0 .381-.164.806a4.7 4.7 0 0 1-.51.943q-.356.519-.97 1.203l-4.077 4.371v1.662h8.621v-1.947h-5.401l2.19-2.459q.63-.641 1.15-1.237t.884-1.177a5.5 5.5 0 0 0 .57-1.178q.2-.597.2-1.22 0-1.109-.476-1.904-.468-.806-1.385-1.23-.909-.432-2.233-.432m33.183 0a4.2 4.2 0 0 0-1.749.355q-.779.345-1.341.96-.554.615-.857 1.42a5 5 0 0 0-.295 1.722q0 .9.243 1.67.242.772.71 1.351.476.571 1.16.9.683.32 1.566.32.692 0 1.298-.285.575-.271 1.016-.715-.05.544-.202 1.01a3 3 0 0 1-.718 1.185q-.485.485-1.238.745-.744.25-1.783.25h-.164v2.017h.199q1.263 0 2.285-.32a5.6 5.6 0 0 0 1.791-.926q.78-.606 1.299-1.454a6.7 6.7 0 0 0 .788-1.913 9.3 9.3 0 0 0 .268-2.286v-.865q0-1.152-.312-2.095a4.8 4.8 0 0 0-.865-1.618 3.9 3.9 0 0 0-1.35-1.056 4.04 4.04 0 0 0-1.749-.372m-77.25.009q-.953 0-1.731.311-.78.303-1.35.952-.564.65-.874 1.67-.303 1.014-.304 2.433v2.181q0 1.143.2 2.026t.57 1.523q.382.631.901 1.048.528.415 1.186.614.658.19 1.42.19.951 0 1.73-.31a3.45 3.45 0 0 0 1.342-.962q.572-.658.875-1.68.302-1.029.302-2.449v-2.181q0-1.134-.199-2.008-.198-.883-.571-1.515a3.6 3.6 0 0 0-.9-1.047 3.5 3.5 0 0 0-1.186-.598 4.8 4.8 0 0 0-1.411-.199zm22.081 0q-.952 0-1.73.311-.78.303-1.351.952-.563.65-.875 1.67-.302 1.014-.302 2.433v2.181q0 1.143.199 2.026.198.882.57 1.523.382.631.9 1.048.529.415 1.187.614.658.19 1.42.19.951 0 1.73-.31a3.45 3.45 0 0 0 1.342-.962q.57-.658.874-1.68.303-1.029.303-2.449v-2.181q0-1.134-.199-2.008-.199-.883-.57-1.515a3.6 3.6 0 0 0-.901-1.047 3.5 3.5 0 0 0-1.186-.598 4.8 4.8 0 0 0-1.41-.199zm46.686.146-5.22 1.862v1.965l2.996-.953v9.756h2.493v-12.63zm-126.016.027v12.603h2.596v-4.666h2.062l2.387 4.666h2.779v-.122l-2.735-5.185c.35-.158.679-.335.96-.553q.624-.486.962-1.204.345-.726.346-1.74 0-1.237-.563-2.086t-1.61-1.28q-1.039-.434-2.484-.433zm11.356 0v12.603h2.597v-4.493h2.31q1.481 0 2.537-.485 1.065-.485 1.627-1.376t.563-2.112q0-1.203-.563-2.138t-1.627-1.463q-1.056-.536-2.536-.536zm32.58 0-.718 6.388 1.99.475q.252-.276.624-.493.381-.216 1.073-.216.51 0 .892.164.39.165.64.468.252.303.373.718.12.416.121.926 0 .51-.104.953a2.4 2.4 0 0 1-.303.761 1.5 1.5 0 0 1-.545.502 1.7 1.7 0 0 1-.814.182q-.51 0-.892-.208a1.6 1.6 0 0 1-.614-.588 2.3 2.3 0 0 1-.277-.926H77.75q.017.874.372 1.558.363.675.96 1.15.606.477 1.36.72a5.2 5.2 0 0 0 1.575.242q1.09 0 1.887-.338t1.324-.926q.528-.598.788-1.35.26-.762.26-1.602 0-.996-.26-1.783a3.6 3.6 0 0 0-.762-1.333 3.2 3.2 0 0 0-1.203-.831q-.71-.285-1.627-.285-.632 0-1.143.173-.51.164-.761.311l.311-2.796h5.029v-2.016zm23.146 0-4.682 12.603h2.76l.872-2.658h4.53l.874 2.658h2.77l-4.709-12.603h-.658zm22.081 0-4.683 12.603h2.761l.872-2.658h4.53l.874 2.658h2.77l-4.709-12.603h-.658zm-31.914 1.774q.338 0 .615.104t.493.329.364.588q.147.356.216.866.078.51.078 1.194v2.848q0 .857-.112 1.454-.112.598-.347.97-.225.363-.554.537-.32.165-.735.164a1.8 1.8 0 0 1-.624-.104q-.276-.105-.493-.329a2.2 2.2 0 0 1-.363-.597 4 4 0 0 1-.226-.892 9 9 0 0 1-.069-1.203v-2.848q0-.848.113-1.436.12-.597.346-.953.225-.363.545-.527.33-.165.753-.165m22.081 0q.338 0 .615.104t.493.329q.216.225.364.588.147.356.216.866.078.51.078 1.194v2.848q0 .857-.113 1.454-.112.598-.346.97-.225.363-.554.537-.32.165-.736.164a1.8 1.8 0 0 1-.623-.104q-.278-.105-.493-.329a2.2 2.2 0 0 1-.364-.597 4 4 0 0 1-.225-.892 9 9 0 0 1-.07-1.203v-2.848q0-.848.113-1.436.122-.597.347-.953.225-.363.545-.527.33-.165.753-.165m55.151 0q.39 0 .71.173.33.172.572.52.25.336.38.857.14.519.139 1.203v1.007a2 2 0 0 1-.338.516q-.242.277-.597.45-.345.165-.788.164-.457 0-.796-.19a1.76 1.76 0 0 1-.563-.528 2.5 2.5 0 0 1-.337-.77 3.7 3.7 0 0 1-.113-.926q0-.485.113-.926.12-.45.337-.797.225-.346.546-.545.32-.208.735-.208m-131.885.26h2.104q.692 0 1.151.233.459.234.684.675.225.443.225 1.047 0 .572-.234 1.005-.225.432-.675.675t-1.134.242h-2.12zm11.357 0h2.31q.745 0 1.213.294.467.294.683.779.217.484.217 1.047 0 .554-.217.996a1.55 1.55 0 0 1-.683.692q-.468.243-1.212.242h-2.311zm54.341 1.016 1.6 4.86h-3.194zm22.081 0 1.599 4.86h-3.193zm-40.823 18.784q-1.382 0-2.39.58a4.05 4.05 0 0 0-1.56 1.542 4.2 4.2 0 0 0-.552 2.121h2.576q0-.642.214-1.15.224-.508.642-.793.428-.285 1.016-.285.552 0 .927.231.384.233.58.66.195.42.196 1.007 0 .392-.17.83-.16.427-.526.971-.365.536-.998 1.239l-4.198 4.502v1.711h8.878v-2.006h-5.562l2.255-2.531q.651-.66 1.185-1.275.535-.615.91-1.212.382-.606.588-1.212.205-.615.205-1.258 0-1.14-.49-1.96-.482-.83-1.427-1.266-.935-.446-2.3-.446m74.925 0q-1.382 0-2.39.58a4.05 4.05 0 0 0-1.559 1.542 4.2 4.2 0 0 0-.553 2.121h2.576q0-.642.214-1.15.224-.508.642-.793a1.8 1.8 0 0 1 1.017-.285q.552 0 .927.231.382.233.579.66.196.42.196 1.007 0 .392-.17.83-.16.427-.525.971-.366.536-.999 1.239l-4.198 4.502v1.711h8.878v-2.006h-5.562l2.255-2.531q.651-.66 1.186-1.275t.909-1.212q.383-.606.589-1.212.204-.615.205-1.258 0-1.14-.49-1.96-.483-.83-1.427-1.266-.935-.446-2.3-.446m-39.51.009q-.98 0-1.782.32a3.54 3.54 0 0 0-1.39.981q-.58.67-.901 1.72-.312 1.044-.312 2.506v2.246q0 1.176.205 2.086.206.909.588 1.569.392.65.927 1.078.544.428 1.221.633.678.196 1.462.196.98 0 1.783-.32a3.55 3.55 0 0 0 1.382-.99q.588-.678.9-1.73.312-1.06.312-2.522v-2.246q0-1.168-.205-2.068-.205-.91-.588-1.56-.384-.66-.927-1.08a3.6 3.6 0 0 0-1.221-.615 5 5 0 0 0-1.453-.204m10.475 0q-.98 0-1.783.32a3.54 3.54 0 0 0-1.39.981q-.58.67-.901 1.72-.312 1.044-.312 2.506v2.246q0 1.176.205 2.086.206.909.588 1.569.392.65.928 1.078.543.428 1.22.633.678.196 1.463.196.98 0 1.782-.32a3.55 3.55 0 0 0 1.382-.99q.588-.678.9-1.73.312-1.06.313-2.522v-2.246q0-1.168-.206-2.068-.204-.91-.588-1.56-.382-.66-.927-1.08a3.6 3.6 0 0 0-1.221-.615 5 5 0 0 0-1.453-.204m-77.286.044q-1.533 0-2.755.526-1.221.525-2.086 1.489a6.6 6.6 0 0 0-1.328 2.264q-.455 1.302-.455 2.87v.999q0 1.123.321 2.068.33.945.937 1.631a4.3 4.3 0 0 0 1.444 1.07q.846.374 1.88.374.999 0 1.8-.339.804-.338 1.374-.944.579-.606.883-1.418a4.9 4.9 0 0 0 .311-1.756q0-.9-.231-1.694a4.2 4.2 0 0 0-.696-1.399 3.3 3.3 0 0 0-1.158-.954q-.687-.348-1.596-.348-.83 0-1.489.277-.66.267-1.132.749-.008.01-.017.02c.047-.327.117-.64.222-.93q.294-.783.838-1.337a3.7 3.7 0 0 1 1.346-.864q.794-.303 1.81-.304h.151v-2.05zm44.25 0q-1.533 0-2.755.526-1.221.525-2.086 1.489a6.6 6.6 0 0 0-1.328 2.264q-.455 1.302-.455 2.87v.999q0 1.123.321 2.068.33.945.937 1.631a4.3 4.3 0 0 0 1.444 1.07q.846.374 1.88.374.999 0 1.8-.339.804-.338 1.374-.944.579-.606.883-1.418a4.9 4.9 0 0 0 .311-1.756q0-.9-.231-1.694a4.2 4.2 0 0 0-.696-1.399 3.3 3.3 0 0 0-1.158-.954q-.687-.348-1.596-.348-.83 0-1.489.277-.66.267-1.132.749-.008.01-.017.02c.047-.327.117-.64.222-.93q.294-.783.838-1.337a3.7 3.7 0 0 1 1.346-.864q.794-.303 1.81-.304h.151v-2.05zm-62.373.134v12.98h2.675v-4.627h2.38q1.524 0 2.612-.5 1.096-.499 1.675-1.417.58-.918.58-2.175 0-1.239-.58-2.202t-1.675-1.506q-1.088-.553-2.612-.553zm22.241 0v12.98h4.965q1.507 0 2.55-.429 1.051-.428 1.595-1.275.544-.855.544-2.103 0-.784-.338-1.471-.33-.687-1.061-1.115a2.7 2.7 0 0 0-.753-.297q.192-.074.36-.166.776-.428 1.133-1.106.365-.676.365-1.48 0-.908-.33-1.568a2.9 2.9 0 0 0-.954-1.105q-.624-.437-1.524-.651a8.7 8.7 0 0 0-2.023-.214zm11.65 0v12.98h4.966q1.507 0 2.55-.429 1.051-.428 1.595-1.275.544-.855.544-2.103 0-.784-.338-1.471-.33-.687-1.061-1.115a2.7 2.7 0 0 0-.753-.297q.192-.074.36-.166.776-.428 1.133-1.106.365-.676.365-1.48 0-.908-.33-1.568a2.9 2.9 0 0 0-.954-1.105q-.624-.437-1.524-.651a8.7 8.7 0 0 0-2.024-.214zm101.812 0-5.411 8.584.125 1.56h5.313v2.835h2.567v-2.835h1.47v-2.014h-1.47v-8.13h-.553zm-50.768 1.827q.347 0 .633.107.285.107.508.339.222.231.374.606.151.365.223.891.08.526.08 1.23v2.933q0 .883-.116 1.498t-.356.998q-.233.376-.57.553-.33.17-.759.17-.347 0-.642-.108a1.4 1.4 0 0 1-.508-.338 2.3 2.3 0 0 1-.374-.615 4.2 4.2 0 0 1-.232-.918 9.5 9.5 0 0 1-.071-1.24v-2.932q0-.874.116-1.48.125-.615.356-.98.232-.375.562-.544.34-.17.776-.17m10.474 0q.347 0 .632.107t.509.339.374.606q.151.365.223.891.08.526.08 1.23v2.933q0 .883-.116 1.498t-.356.998q-.233.376-.57.553-.33.17-.758.17-.348 0-.642-.108a1.4 1.4 0 0 1-.508-.338 2.3 2.3 0 0 1-.375-.615 4.2 4.2 0 0 1-.231-.918 9.5 9.5 0 0 1-.072-1.24v-2.932q0-.874.116-1.48.124-.615.357-.98.231-.375.561-.544.34-.17.776-.17m-92.734.268h2.38q.766 0 1.248.303.48.304.704.802.223.5.223 1.079 0 .57-.223 1.025a1.6 1.6 0 0 1-.704.713q-.482.25-1.248.25h-2.38Zm22.24 0h1.855q.749 0 1.22.169.483.17.705.544.232.375.232.98 0 .535-.241.91-.232.365-.704.561-.472.187-1.212.187h-1.854zm11.651 0h1.854q.75 0 1.222.169.48.17.704.544.231.375.232.98 0 .535-.241.91-.233.365-.704.561-.473.187-1.213.187h-1.854zm99.164 1.275v4.76h-2.889l2.692-4.43zm-119.764 2.932q.445 0 .802.178.356.18.606.509.249.32.375.766.133.446.133.972t-.133.972a2.3 2.3 0 0 1-.375.766q-.24.32-.588.5a1.6 1.6 0 0 1-.758.178q-.446 0-.802-.17a1.8 1.8 0 0 1-.624-.525 2.7 2.7 0 0 1-.401-.883 5 5 0 0 1-.134-1.23v-.772c.036-.088.065-.177.116-.263q.258-.435.713-.713a2 2 0 0 1 1.07-.285m44.25 0q.445 0 .802.178.357.18.606.509.249.32.375.766.133.446.133.972t-.133.972a2.3 2.3 0 0 1-.375.766q-.24.32-.588.5a1.6 1.6 0 0 1-.758.178q-.446 0-.802-.17a1.8 1.8 0 0 1-.624-.525 2.7 2.7 0 0 1-.401-.883 5 5 0 0 1-.134-1.23v-.772c.036-.088.065-.177.116-.263q.258-.435.713-.713a2 2 0 0 1 1.07-.285m-35.3.98h2.406q.687 0 1.106.232.418.224.606.642.196.42.196.99 0 .508-.214.9t-.66.624q-.445.223-1.15.223h-2.29Zm11.65 0h2.407q.686 0 1.106.232.418.224.606.642.195.42.196.99 0 .508-.214.9-.215.392-.66.624-.445.223-1.15.223h-2.29zm35.88 3.12q-.66 0-1.06.384a1.28 1.28 0 0 0-.393.954q0 .57.392.954.401.383 1.061.383t1.052-.383q.4-.384.4-.954t-.4-.954q-.392-.383-1.052-.383" style="fill:#666;fill-opacity:1;stroke-width:.264582"/><circle cx="25.546" cy="11.095" r="2.628" style="fill:#666;fill-opacity:1;stroke-width:1.2;stroke-linecap:round;paint-order:stroke fill markers"/></g></svg>