<svg xmlns="http://www.w3.org/2000/svg" xml:space="preserve" width="210mm" height="210mm" viewBox="0 0 210 210"><path d="m157.517 70.108-.885-1.32a17.33 17.33 0 0 0-10.146-17.206c1.547-.428 3.312-.885 3.752-2.868a4.22 4.22 0 0 0 3.748-3.308c.663-.427 3.312-1.987 2.868-4.188a3.564 3.564 0 0 0 1.765-3.97c1.543-1.543 1.983-2.868 1.325-4.193a3.19 3.19 0 0 0 .218-4.632c1.324-2.424.223-5.073-3.53-4.633a5.86 5.86 0 0 0-5.291-1.765 3.57 3.57 0 0 0-3.53-1.099 4.34 4.34 0 0 0-4.85-.427c-1.988-1.543-3.309-.222-4.856.222-2.423-.88-3.085.223-4.188.663-2.645-.663-3.526.658-4.85 1.987h-1.543a18.4 18.4 0 0 0-6.838 9.483 15.56 15.56 0 0 0-6.838-9.483H112.3c-1.32-1.33-1.982-2.427-4.85-1.987-1.098-.428-1.765-1.543-4.188-.663a16 16 0 0 0-3.09-.88 4.2 4.2 0 0 0-1.988.658 4.33 4.33 0 0 0-4.846.428c-2.21-.223-3.09.217-3.53 1.098-.428 0-3.748-.427-5.295 1.765-3.752-.427-4.85 2.205-3.53 4.633a3.363 3.363 0 0 0 .223 4.632c-.657 1.325-.223 2.65 1.321 4.193a3.71 3.71 0 0 0 1.765 3.97c-.218 2.423 2.21 3.748 2.868 4.188.223 1.325.885 2.646 3.752 3.308.428 1.983 2.205 2.428 3.748 2.868a17.52 17.52 0 0 0-10.146 17.206l-.885 1.32a16.95 16.95 0 0 0-3.081 25.587 53 53 0 0 0 2.423 7.718 19.41 19.41 0 0 0 11.91 14.996 45.4 45.4 0 0 0 11.25 6.411 19 19 0 0 0 13.893 6.175h.223a19.04 19.04 0 0 0 13.898-6.175 36.6 36.6 0 0 0 11.244-6.41 18.61 18.61 0 0 0 11.91-14.997 53 53 0 0 0 2.428-7.718 16.24 16.24 0 0 0-2.21-25.587m-4.632-1.765c-.218 3.97-21.394-14.103-17.864-14.778 9.924-1.543 18.086 4.192 17.864 14.778m-9.479 20.087a12.52 12.52 0 0 1-16.988-4.855 12.34 12.34 0 0 1 2.21-17.42 12.505 12.505 0 0 1 16.979 4.846 12.29 12.29 0 0 1-2.201 17.429m-14.56-62.418c.222.88.428 1.543.662 1.543a28 28 0 0 1 3.53-3.752c0 .666-.428 1.547.428 1.987a14.1 14.1 0 0 1 3.312-2.868c-.662 1.103-.223 1.547.218 1.988a12.4 12.4 0 0 1 4.193-2.65c-.663.662-1.325 1.325-.428 2.21a14.7 14.7 0 0 1 5.077-1.988c-.662.663-1.987 1.32-1.103 1.987a31 31 0 0 1 4.85-1.106c-.88.662-1.542 1.324-.88 1.987a12.15 12.15 0 0 1 5.735-.663l-1.324 1.325a24.2 24.2 0 0 0 5.073.222 13.1 13.1 0 0 0-1.983 3.966c.218.223 1.32 0 2.2 0-1.098 2.206-2.867 2.65-3.085 3.53a2.38 2.38 0 0 0 2.423 0c-.659 1.543-2.205 2.428-3.525 3.753.22.218.88.427 2.2.218a31 31 0 0 1-3.966 3.308 12 12 0 0 0 2.201.427 24 24 0 0 1-5.068 3.09 2.86 2.86 0 0 0 2.205.427 16.6 16.6 0 0 1-5.295 2.205c.428.663.662.663 1.547.88-1.987 1.108-5.077.663-5.957 1.108.223.658.662.88 1.542 1.325-3.308.217-12.346-.223-14.103-7.06a69.4 69.4 0 0 1 20.291-13.454 66 66 0 0 0-22.056 11.688c-7.718-3.53-2.65-12.133 1.103-15.658m-7.5 24.92c5.295 0 11.693 3.752 11.693 7.5 0 3.308-4.633 5.957-11.693 5.735-7.056 0-11.689-3.312-11.689-6.41 0-2.646 5.736-7.06 11.689-6.838m-26.69-2.868c.886-.222 1.107-.222 1.548-.88a16.8 16.8 0 0 1-5.295-2.206 2.88 2.88 0 0 0 2.205-.427 24 24 0 0 1-5.072-3.09c.88 0 1.983 0 2.205-.427a14.4 14.4 0 0 1-3.97-3.312 3 3 0 0 0 2.205-.218 28.4 28.4 0 0 1-3.526-3.748 3.09 3.09 0 0 0 2.423 0c-.428-.88-2.2-1.547-3.085-3.53.885 0 1.983.218 2.205 0a13.2 13.2 0 0 0-1.988-3.97 23 23 0 0 0 5.078-.223l-1.33-1.325a9.9 9.9 0 0 1 5.736.667c.662-.427 0-1.103-.88-1.987a32 32 0 0 1 4.854 1.102c.658-.662-.428-1.325-1.106-1.983a12.45 12.45 0 0 1 5.073 1.983c.88-.88 0-1.547-.428-2.205a12.4 12.4 0 0 1 4.188 2.645c.428-.427.885-.88.223-1.983a8.7 8.7 0 0 1 3.312 2.864c.88-.658.428-1.32.428-1.983a19 19 0 0 1 3.526 3.748 3.35 3.35 0 0 0 .667-1.543c3.526 3.53 8.599 12.133 1.321 15.437a70.3 70.3 0 0 0-22.056-11.685 74.4 74.4 0 0 1 20.291 13.45c-1.765 6.838-10.808 7.265-14.103 7.06a2.34 2.34 0 0 0 1.547-1.325 17.8 17.8 0 0 1-6.18-.88m13.014 5.295c3.752.662-17.424 18.748-17.86 14.774-.223-10.582 7.936-16.317 17.86-14.774m-22.274 40.36a13.454 13.454 0 0 1 2.645-21.394c5.735-1.324 1.987 23.6-2.645 21.395m19.629 21.398c-2.868 1.76-9.924 1.098-14.997-5.958-3.308-5.953-2.867-11.91-.662-13.675 3.526-2.206 9.043.662 13.248 5.513 3.748 4.188 5.513 11.91 2.423 14.103m16.322 12.129c-6.41.217-12.574-5.073-12.574-7.06 0-2.646 7.723-4.856 12.796-4.856 5.073-.213 12.129 1.548 12.129 4.193.223 2.427-6.172 7.723-12.351 7.723m12.795-27.13a12.32 12.32 0 0 1-12.795 11.689 12.18 12.18 0 0 1-12.791-11.689V99.9a12.325 12.325 0 0 1 12.79-11.688 12.505 12.505 0 0 1 12.796 11.91m17.864 9.266c-5.517 7.496-12.791 7.714-15.663 5.735-2.868-2.654-.659-11.03 3.312-15.659 4.633-5.077 9.483-8.385 12.791-5.74a14.34 14.34 0 0 1-.428 15.664m4.85-15.881c-4.632 1.983-8.38-22.72-2.644-21.399a13.334 13.334 0 0 1 2.645 21.399m-56.84-4.5a12.526 12.526 0 0 1-2.94-17.424 12.34 12.34 0 0 1 16.667-5.51 12.51 12.51 0 0 1 2.944 17.412 12.295 12.295 0 0 1-16.667 5.521" style="fill:#666;fill-opacity:1;stroke-width:.264582" transform="translate(-18.155 -.53)"/><path d="M114.168 141.531v15.487h5.925q1.797 0 3.041-.511 1.256-.51 1.904-1.521.65-1.021.649-2.51 0-.937-.404-1.755-.393-.82-1.266-1.33a3.2 3.2 0 0 0-.888-.356q.224-.089.42-.197.926-.51 1.351-1.32.436-.807.436-1.764 0-1.086-.393-1.872a3.46 3.46 0 0 0-1.138-1.32q-.745-.52-1.82-.776-1.063-.255-2.414-.255zm-44.312.232q-1.601 0-2.768.672a4.7 4.7 0 0 0-1.807 1.786 4.85 4.85 0 0 0-.64 2.458h2.984q0-.744.248-1.332.258-.59.743-.92.496-.33 1.178-.33.64 0 1.074.269.444.268.672.764.226.484.226 1.167 0 .454-.196.96-.185.496-.609 1.126-.423.62-1.157 1.436l-4.864 5.216v1.983h10.286v-2.324h-6.444l2.613-2.934q.753-.763 1.373-1.476t1.054-1.405q.444-.702.682-1.404.237-.713.237-1.457 0-1.322-.568-2.272-.558-.96-1.652-1.467-1.085-.516-2.665-.516m11.97 0q-1.353 0-2.479.516t-1.797 1.436q-.66.92-.66 2.158h2.984q0-.558.279-.95.28-.393.743-.61.465-.216 1.013-.216.692 0 1.146.258.454.248.672.703.226.443.226 1.022 0 .64-.247 1.126a1.7 1.7 0 0 1-.734.743q-.495.258-1.26.259h-1.59v2.261h1.59q.765 0 1.322.238.558.237.858.743.3.496.299 1.322 0 .641-.279 1.126-.268.476-.785.744-.505.258-1.218.258a2.5 2.5 0 0 1-1.147-.258 2 2 0 0 1-.795-.713 1.9 1.9 0 0 1-.289-1.033h-2.985q0 1.116.434 1.932a4.1 4.1 0 0 0 1.177 1.342 5.6 5.6 0 0 0 1.653.796 6.9 6.9 0 0 0 1.87.258q1.145 0 2.116-.289a5.2 5.2 0 0 0 1.694-.868q.734-.567 1.136-1.384.403-.825.403-1.88 0-.856-.32-1.56a3.35 3.35 0 0 0-.95-1.228 4.2 4.2 0 0 0-1.301-.72 4.5 4.5 0 0 0 1.042-.664q.62-.537.95-1.198a3.1 3.1 0 0 0 .33-1.384q.001-1.404-.64-2.355-.64-.95-1.786-1.435-1.146-.496-2.675-.496m77.13 0q-1.601 0-2.769.672a4.7 4.7 0 0 0-1.807 1.786 4.85 4.85 0 0 0-.64 2.458h2.984q0-.744.248-1.332.258-.59.744-.92.496-.33 1.177-.33.64 0 1.074.269.444.268.672.764.227.484.227 1.167 0 .454-.197.96-.184.496-.609 1.126-.424.62-1.156 1.436l-4.865 5.216v1.983h10.287v-2.324h-6.445l2.613-2.934q.753-.763 1.373-1.476t1.054-1.405q.444-.702.682-1.404.237-.713.237-1.457 0-1.322-.568-2.272-.558-.96-1.652-1.467-1.084-.516-2.665-.516m-52.58.01q-1.137 0-2.066.373-.93.36-1.611 1.135-.671.775-1.043 1.994-.362 1.208-.362 2.902v2.603q0 1.363.238 2.416.237 1.053.681 1.818.454.755 1.074 1.25.63.495 1.415.733a6 6 0 0 0 1.694.227q1.136 0 2.066-.371a4.1 4.1 0 0 0 1.6-1.147q.683-.785 1.044-2.004.36-1.228.361-2.922v-2.603q0-1.352-.237-2.396-.238-1.054-.682-1.808a4.2 4.2 0 0 0-1.074-1.25 4.2 4.2 0 0 0-1.415-.712 5.7 5.7 0 0 0-1.684-.238zm26.346 0q-1.136 0-2.065.373-.93.36-1.611 1.135-.672.775-1.044 1.994-.36 1.208-.361 2.902v2.603q0 1.363.237 2.416.238 1.053.682 1.818.454.755 1.074 1.25.63.495 1.415.733a6 6 0 0 0 1.694.227q1.136 0 2.065-.371a4.1 4.1 0 0 0 1.6-1.147q.683-.785 1.044-2.004.362-1.228.362-2.922v-2.603q0-1.352-.238-2.396-.237-1.054-.681-1.808a4.2 4.2 0 0 0-1.074-1.25 4.2 4.2 0 0 0-1.415-.712 5.7 5.7 0 0 0-1.684-.238zm-94.655.207v15.038h3.098v-5.567h2.46l2.848 5.567h3.316v-.145l-3.255-6.172q.63-.284 1.137-.675a3.9 3.9 0 0 0 1.147-1.436q.414-.867.413-2.076 0-1.476-.671-2.49-.672-1.01-1.922-1.528-1.239-.516-2.964-.516zm13.55 0v15.038h3.098v-5.36h2.758q1.766 0 3.026-.58 1.27-.577 1.941-1.641.672-1.065.672-2.52 0-1.435-.672-2.551-.67-1.116-1.941-1.746-1.26-.64-3.026-.64zm38.874 0-.857 7.622 2.375.568q.3-.33.744-.588.455-.258 1.28-.259.61 0 1.064.196.465.196.765.558t.444.857q.145.497.145 1.105 0 .61-.124 1.137a2.8 2.8 0 0 1-.362.909 1.75 1.75 0 0 1-.65.598q-.404.217-.971.217a2.2 2.2 0 0 1-1.065-.247 1.94 1.94 0 0 1-.733-.703 2.7 2.7 0 0 1-.33-1.105h-2.954q.021 1.043.444 1.86.434.804 1.147 1.372a5.2 5.2 0 0 0 1.621.858 6.2 6.2 0 0 0 1.88.29q1.301 0 2.251-.404a4.4 4.4 0 0 0 1.58-1.105q.63-.713.94-1.611.31-.91.31-1.91 0-1.189-.31-2.128a4.3 4.3 0 0 0-.908-1.59 3.84 3.84 0 0 0-1.436-.992q-.847-.341-1.942-.34-.753 0-1.363.206-.61.196-.909.372l.372-3.337h6v-2.406zm53.964 0-5.588 15.038h3.295l1.04-3.171h5.404l1.044 3.17h3.305l-5.619-15.037h-.785zm-27.096 2.05h2.212q.894 0 1.458.203.574.201.84.648.276.448.276 1.17 0 .638-.287 1.085-.277.437-.84.67-.564.225-1.447.224h-2.212zm-10.984.067q.404 0 .734.124t.588.393.434.702q.176.424.259 1.033.092.608.092 1.425v3.398q0 1.023-.134 1.735-.135.712-.413 1.157-.27.434-.66.64-.383.196-.879.196a2.2 2.2 0 0 1-.743-.123 1.6 1.6 0 0 1-.59-.393 2.6 2.6 0 0 1-.433-.712 5 5 0 0 1-.269-1.065 11 11 0 0 1-.082-1.435v-3.398q0-1.012.134-1.714.145-.713.413-1.137.27-.433.65-.63.394-.196.9-.196m26.347 0q.403 0 .733.124t.59.393q.257.269.433.702.175.424.258 1.033.093.608.093 1.425v3.398q0 1.023-.134 1.735-.135.712-.413 1.157-.27.434-.661.64-.383.196-.878.196a2.2 2.2 0 0 1-.744-.123 1.6 1.6 0 0 1-.589-.393 2.6 2.6 0 0 1-.433-.712 5 5 0 0 1-.27-1.065 11 11 0 0 1-.082-1.435v-3.398q0-1.012.135-1.714.144-.713.413-1.137.269-.433.65-.63.393-.196.9-.196m-91.557.31h2.51q.825 0 1.373.279.548.28.816.806.269.526.269 1.249 0 .682-.28 1.198a1.9 1.9 0 0 1-.805.806q-.537.29-1.353.29h-2.53zm13.55 0h2.758q.888 0 1.446.351t.815.93.259 1.25q0 .66-.259 1.187a1.85 1.85 0 0 1-.815.827q-.558.288-1.446.289h-2.758zm91.186 1.214 1.908 5.799h-3.81zm-28.542 4.6h2.872q.819 0 1.319.276.5.267.723.766.234.5.234 1.18 0 .607-.256 1.075-.255.468-.786.745-.532.266-1.372.266h-2.734z" style="font-weight:700;font-size:67px;line-height:84px;font-family:Roboto;-inkscape-font-specification:&quot;Roboto Bold&quot;;white-space:pre;fill:#666;fill-opacity:1;stroke-width:1.2;stroke-linecap:round;paint-order:stroke fill markers" transform="translate(-18.155 -.53)"/><path d="M97.191 168.032q-1.65 0-2.85.692a4.84 4.84 0 0 0-1.862 1.84q-.66 1.15-.66 2.531h3.075q0-.765.255-1.372.265-.606.766-.946.51-.34 1.212-.34.66 0 1.106.276.457.276.691.787.234.5.235 1.202 0 .468-.203.989-.191.51-.627 1.16a15 15 0 0 1-1.192 1.478l-5.009 5.371v2.043h10.594v-2.394h-6.637l2.69-3.02q.777-.788 1.415-1.521.64-.735 1.085-1.447.457-.723.702-1.446.245-.735.245-1.5 0-1.362-.585-2.34-.574-.99-1.702-1.51-1.117-.533-2.744-.533m42.258.011q-1.17 0-2.128.383a4.2 4.2 0 0 0-1.659 1.17q-.69.798-1.074 2.052-.372 1.245-.372 2.99v2.68q0 1.403.244 2.489.245 1.085.702 1.871.468.777 1.106 1.287.649.51 1.457.756a6.3 6.3 0 0 0 1.745.234q1.17 0 2.127-.383a4.24 4.24 0 0 0 1.649-1.18q.702-.81 1.074-2.064.372-1.266.372-3.01v-2.68q0-1.395-.245-2.468-.244-1.085-.701-1.862a4.4 4.4 0 0 0-1.106-1.286 4.3 4.3 0 0 0-1.457-.735 5.9 5.9 0 0 0-1.734-.244m12.497 0q-1.17 0-2.127.383a4.2 4.2 0 0 0-1.659 1.17q-.691.798-1.075 2.052-.372 1.245-.372 2.99v2.68q0 1.403.245 2.489.244 1.085.702 1.871.468.777 1.106 1.287.649.51 1.457.756a6.3 6.3 0 0 0 1.744.234q1.17 0 2.128-.383a4.24 4.24 0 0 0 1.648-1.18q.702-.81 1.075-2.064.372-1.266.372-3.01v-2.68q0-1.395-.245-2.468-.245-1.085-.701-1.862a4.4 4.4 0 0 0-1.107-1.286 4.4 4.4 0 0 0-1.457-.735 5.9 5.9 0 0 0-1.734-.244m-92.216.053q-1.83 0-3.286.628a7.05 7.05 0 0 0-2.49 1.776q-1.031 1.138-1.584 2.702-.543 1.552-.543 3.424v1.191q0 1.34.383 2.468.393 1.127 1.117 1.947a5.1 5.1 0 0 0 1.723 1.276q1.011.447 2.244.447 1.192 0 2.149-.405a4.8 4.8 0 0 0 1.638-1.127 4.9 4.9 0 0 0 1.053-1.691 5.8 5.8 0 0 0 .372-2.095q0-1.074-.276-2.021a5 5 0 0 0-.83-1.67 3.9 3.9 0 0 0-1.383-1.138q-.819-.415-1.904-.415-.99 0-1.776.33a3.9 3.9 0 0 0-1.35.893l-.029.032q.083-.593.273-1.117a4.5 4.5 0 0 1 1-1.595q.66-.67 1.606-1.032t2.159-.362h.181v-2.446zm52.798 0q-1.83 0-3.286.628a7.05 7.05 0 0 0-2.49 1.776q-1.03 1.138-1.584 2.702-.543 1.552-.543 3.424v1.191q0 1.34.383 2.468.394 1.127 1.118 1.947a5.1 5.1 0 0 0 1.722 1.276q1.01.447 2.245.447 1.191 0 2.148-.405a4.8 4.8 0 0 0 1.638-1.127 4.9 4.9 0 0 0 1.053-1.691 5.8 5.8 0 0 0 .372-2.095q0-1.074-.276-2.021a5 5 0 0 0-.83-1.67 3.9 3.9 0 0 0-1.382-1.138q-.82-.415-1.904-.415-.99 0-1.777.33a3.9 3.9 0 0 0-1.35.893l-.029.032q.083-.593.273-1.117a4.5 4.5 0 0 1 1-1.595q.66-.67 1.606-1.032t2.159-.362h.181v-2.446zm-74.421.16v15.486h3.19v-5.52h2.84q1.82 0 3.117-.596 1.307-.595 2-1.691.69-1.096.69-2.595 0-1.479-.69-2.628-.693-1.148-2-1.797-1.298-.66-3.116-.66zm26.537 0v15.486h5.924q1.798 0 3.042-.51 1.256-.51 1.904-1.521.65-1.022.649-2.51 0-.938-.404-1.755-.393-.82-1.266-1.33a3.2 3.2 0 0 0-.887-.357q.222-.088.42-.197.924-.51 1.35-1.318.436-.81.436-1.766 0-1.084-.393-1.872a3.46 3.46 0 0 0-1.139-1.319q-.744-.52-1.819-.776-1.063-.255-2.414-.255zm13.901 0v15.486h5.925q1.798 0 3.042-.51 1.255-.51 1.904-1.521.648-1.022.649-2.51 0-.938-.404-1.755-.395-.82-1.266-1.33a3.2 3.2 0 0 0-.888-.357q.224-.088.42-.197.925-.51 1.35-1.318.437-.81.437-1.766 0-1.084-.394-1.872a3.46 3.46 0 0 0-1.138-1.319q-.744-.52-1.819-.776-1.064-.255-2.414-.255zm60.904 2.18q.414 0 .755.128.34.128.606.404t.447.723q.181.435.266 1.063.096.628.096 1.469v3.499q0 1.053-.139 1.787-.138.734-.425 1.19a1.8 1.8 0 0 1-.68.66 1.95 1.95 0 0 1-.905.202q-.415 0-.766-.127a1.6 1.6 0 0 1-.606-.404 2.7 2.7 0 0 1-.447-.734 5 5 0 0 1-.276-1.096 11 11 0 0 1-.086-1.478v-3.5q0-1.042.139-1.765.148-.735.425-1.17a1.7 1.7 0 0 1 .67-.649q.405-.202.926-.202m12.497 0q.415 0 .755.128.341.128.607.404t.446.723q.181.435.266 1.063.096.628.096 1.469v3.499q0 1.053-.138 1.787-.139.734-.426 1.19a1.8 1.8 0 0 1-.68.66 1.95 1.95 0 0 1-.905.202q-.414 0-.765-.127a1.6 1.6 0 0 1-.606-.404 2.7 2.7 0 0 1-.447-.734 5 5 0 0 1-.277-1.096 11 11 0 0 1-.085-1.478v-3.5q0-1.042.138-1.765.15-.735.426-1.17a1.7 1.7 0 0 1 .67-.649q.405-.202.925-.202m-110.649.319h2.84q.915 0 1.49.362.574.36.84.957.266.595.266 1.287 0 .68-.267 1.223a1.9 1.9 0 0 1-.84.85q-.574.3-1.488.299h-2.84zm26.538 0h2.212q.894 0 1.457.202.575.202.84.649.277.447.277 1.17 0 .638-.287 1.085-.277.435-.84.67-.564.223-1.447.223h-2.212zm13.901 0h2.213q.893 0 1.457.202.575.202.84.649.276.447.277 1.17 0 .638-.288 1.085-.276.435-.84.67-.564.223-1.446.223h-2.213zm-24.58 5.02q.532 0 .957.213.426.213.724.607.297.383.447.914.159.531.159 1.16 0 .627-.16 1.16a2.8 2.8 0 0 1-.446.913 2 2 0 0 1-.702.596q-.405.213-.905.213-.531 0-.957-.202a2.15 2.15 0 0 1-.745-.628 3.2 3.2 0 0 1-.478-1.053 6 6 0 0 1-.16-1.468v-.963q.06-.137.139-.27.31-.522.85-.851.554-.34 1.277-.34m52.799 0q.531 0 .957.213.424.213.723.607.298.383.447.914.159.531.159 1.16 0 .627-.16 1.16-.148.52-.446.913a2 2 0 0 1-.702.596q-.405.213-.904.213-.533 0-.957-.202a2.15 2.15 0 0 1-.745-.628 3.2 3.2 0 0 1-.479-1.053 6 6 0 0 1-.16-1.468v-.963q.06-.137.14-.27.308-.522.85-.851.553-.34 1.277-.34m-42.12 1.17h2.872q.819 0 1.318.277.5.265.724.766.234.5.234 1.18 0 .606-.255 1.074t-.788.745q-.53.266-1.372.266h-2.733zm13.901 0h2.872q.819 0 1.32.277.499.265.722.766.234.5.234 1.18 0 .606-.255 1.074t-.787.745q-.531.266-1.372.266h-2.734zm42.812 3.723q-.788 0-1.266.457a1.53 1.53 0 0 0-.468 1.139q0 .68.468 1.138.478.457 1.266.457.786 0 1.254-.457a1.5 1.5 0 0 0 .479-1.138q0-.681-.479-1.139-.468-.457-1.254-.457" style="font-weight:700;font-size:69px;line-height:84px;font-family:Roboto;-inkscape-font-specification:&quot;Roboto Bold&quot;;white-space:pre;fill:#666;fill-opacity:1;stroke-width:1.2;stroke-linecap:round;paint-order:stroke fill markers" transform="translate(-18.155 -.53)"/><path d="M188.747 141.949v15.068h-2.974v-11.64l-3.574 1.137v-2.345l6.228-2.22zm6.992 12.807h.197q1.239 0 2.127-.3.899-.31 1.477-.888t.857-1.415q.279-.847.279-1.921v-2.85q0-.816-.165-1.436-.155-.62-.455-1.023-.289-.413-.681-.62-.382-.206-.847-.206-.496 0-.878.248-.382.238-.65.65-.259.414-.404.95-.134.528-.134 1.106t.134 1.105q.135.516.403.92.269.392.672.63.402.226.95.226.527 0 .94-.196.423-.206.712-.537.3-.33.455-.733.165-.403.165-.816l.981.537q0 .723-.31 1.425t-.867 1.28q-.548.569-1.27.91-.724.34-1.55.34-1.053 0-1.87-.382-.815-.392-1.383-1.074-.558-.692-.847-1.61-.29-.92-.29-1.994 0-1.095.352-2.055.361-.96 1.022-1.694.672-.733 1.601-1.147.94-.423 2.086-.423 1.147 0 2.087.444t1.61 1.26q.672.806 1.034 1.931.371 1.126.371 2.5v1.033q0 1.466-.32 2.726-.31 1.26-.94 2.283-.62 1.012-1.549 1.735-.919.723-2.138 1.105t-2.726.382h-.238z" style="font-weight:700;font-size:67px;line-height:84px;font-family:roboto;-inkscape-font-specification:&quot;roboto Bold&quot;;white-space:pre;fill:#666;fill-opacity:1;stroke-width:1.2;stroke-linecap:round;paint-order:stroke fill markers" transform="translate(-18.155 -.53)"/><path d="M192.122 181.35v2.392h-10.594V181.7l5.01-5.371q.755-.84 1.19-1.478.437-.65.628-1.16.202-.521.202-.989 0-.702-.234-1.202-.234-.51-.69-.787-.448-.277-1.107-.277-.702 0-1.213.34-.5.341-.765.947-.256.607-.256 1.373h-3.074q0-1.383.66-2.532.66-1.16 1.861-1.84 1.202-.691 2.85-.691 1.628 0 2.745.532 1.127.52 1.702 1.51.585.978.585 2.34 0 .766-.245 1.5-.245.723-.702 1.446-.447.713-1.085 1.447-.638.733-1.414 1.52l-2.691 3.021zm12.752-3.394v2.404h-11.157l-.149-1.861 6.456-10.243h2.436l-2.638 4.414-3.212 5.286zm-1.755-9.7v15.486h-3.063v-15.486z" style="font-weight:700;font-size:69px;line-height:84px;font-family:roboto;-inkscape-font-specification:&quot;roboto Bold&quot;;white-space:pre;fill:#666;fill-opacity:1;stroke-width:1.2;stroke-linecap:round;paint-order:stroke fill markers" transform="translate(-18.155 -.53)"/></svg>